******** The.Losers.2010.DVDRiP.XviD.OPTIONAL-MULTI_SUB-Zen_Bud *******

Format                           : AVI
File size                        : 706 MiB
Duration                         : 1h 33mn
Overall bit rate                 : 1 061 Kbps

Video

Format                           : MPEG-4 Visual
Codec ID/Hint                    : XviD
Duration                         : 1h 33mn
Bit rate                         : 920 Kbps
Width                            : 720 pixels
Height                           : 428 pixels
Display aspect ratio             : 2.35:1
Stream size                      : 612 MiB (87%)
Writing library                  : XviD 1.1.2 (UTC 2006-11-01)

Audio

Format                           : MPEG Audio
Codec ID/Hint                    : MP3
Duration                         : 1h 33mn
Bit rate                         : 128 Kbps
Channel(s)                       : 2 channels
Sampling rate                    : 48.0 KHz
Stream size                      : 85.1 MiB (12%)
Writing library                  : LAME3.98
Language                         : English

Text #1
ID                               : 3
Language                         : English

Text #2
ID                               : 4
Language                         : Danish

Text #3
ID                               : 5
Language                         : Finnish

Text #4
ID                               : 6
Language                         : Norwegian

Text #5
ID                               : 7
Language                         : Portuguese

Text #6
ID                               : 8
Language                         : Swedish


After being betrayed and left for dead, members of a CIA black ops team root out those who targeted them for assassination. 